<mxfile host="app.diagrams.net" modified="2023-10-11T20:14:56.398Z" agent="Mozilla/5.0 (X11; Linux x86_64; rv:102.0) Gecko/20100101 Firefox/102.0" etag="AW9mPwxZTZv-ciC7kBfi" version="22.0.4" type="github">
  <diagram name="Page-1" id="CSsisio0f71AfnMWBgMS">
    <mxGraphModel dx="1687" dy="889" grid="1" gridSize="10" guides="1" tooltips="1" connect="1" arrows="1" fold="1" page="1" pageScale="1" pageWidth="850" pageHeight="1100" math="0" shadow="0">
      <root>
        <mxCell id="0" />
        <mxCell id="1" parent="0" />
        <mxCell id="JhE3Eh3EsiaqxNz8OIDg-1" value="UI" style="shape=cube;whiteSpace=wrap;html=1;boundedLbl=1;backgroundOutline=1;darkOpacity=0.05;darkOpacity2=0.1;size=10;" vertex="1" parent="1">
          <mxGeometry x="150" y="302" width="120" height="80" as="geometry" />
        </mxCell>
        <mxCell id="JhE3Eh3EsiaqxNz8OIDg-4" value="" style="shape=cube;whiteSpace=wrap;html=1;boundedLbl=1;backgroundOutline=1;darkOpacity=0.05;darkOpacity2=0.1;size=10;" vertex="1" parent="1">
          <mxGeometry x="481" y="181" width="220" height="330" as="geometry" />
        </mxCell>
        <mxCell id="JhE3Eh3EsiaqxNz8OIDg-7" style="edgeStyle=orthogonalEdgeStyle;rounded=0;orthogonalLoop=1;jettySize=auto;html=1;entryX=0;entryY=0;entryDx=409.5;entryDy=0;entryPerimeter=0;endArrow=none;endFill=0;" edge="1" parent="1" source="JhE3Eh3EsiaqxNz8OIDg-4" target="JhE3Eh3EsiaqxNz8OIDg-5">
          <mxGeometry relative="1" as="geometry" />
        </mxCell>
        <mxCell id="JhE3Eh3EsiaqxNz8OIDg-8" value="&lt;span class=&quot;JCzEY ZwRhJd&quot;&gt;&lt;/span&gt;" style="edgeLabel;html=1;align=center;verticalAlign=middle;resizable=0;points=[];" vertex="1" connectable="0" parent="JhE3Eh3EsiaqxNz8OIDg-7">
          <mxGeometry x="-0.1" y="1" relative="1" as="geometry">
            <mxPoint as="offset" />
          </mxGeometry>
        </mxCell>
        <mxCell id="JhE3Eh3EsiaqxNz8OIDg-9" value="&lt;span class=&quot;JCzEY ZwRhJd&quot;&gt;SQLAlchemy&lt;/span&gt;" style="edgeLabel;html=1;align=center;verticalAlign=middle;resizable=0;points=[];" vertex="1" connectable="0" parent="JhE3Eh3EsiaqxNz8OIDg-7">
          <mxGeometry x="-0.0714" y="-2" relative="1" as="geometry">
            <mxPoint as="offset" />
          </mxGeometry>
        </mxCell>
        <mxCell id="JhE3Eh3EsiaqxNz8OIDg-11" value="&lt;div&gt;&amp;lt;&amp;lt;device&amp;gt;&amp;gt;&lt;/div&gt;&lt;div&gt;{OS=Linux}&lt;/div&gt;&lt;div&gt;&lt;div&gt;Health Service Management Server&lt;/div&gt;&lt;/div&gt;" style="text;html=1;strokeColor=none;fillColor=none;align=center;verticalAlign=middle;whiteSpace=wrap;rounded=0;" vertex="1" parent="1">
          <mxGeometry x="499" y="207" width="200" height="30" as="geometry" />
        </mxCell>
        <mxCell id="JhE3Eh3EsiaqxNz8OIDg-15" style="edgeStyle=orthogonalEdgeStyle;rounded=0;orthogonalLoop=1;jettySize=auto;html=1;entryX=0;entryY=0;entryDx=119.99999999999999;entryDy=45;entryPerimeter=0;endArrow=none;endFill=0;" edge="1" parent="1" source="JhE3Eh3EsiaqxNz8OIDg-4" target="JhE3Eh3EsiaqxNz8OIDg-1">
          <mxGeometry relative="1" as="geometry">
            <mxPoint x="270" y="285" as="targetPoint" />
          </mxGeometry>
        </mxCell>
        <mxCell id="JhE3Eh3EsiaqxNz8OIDg-16" value="FastApi" style="edgeLabel;html=1;align=center;verticalAlign=middle;resizable=0;points=[];" vertex="1" connectable="0" parent="JhE3Eh3EsiaqxNz8OIDg-15">
          <mxGeometry x="0.0831" y="1" relative="1" as="geometry">
            <mxPoint as="offset" />
          </mxGeometry>
        </mxCell>
        <mxCell id="JhE3Eh3EsiaqxNz8OIDg-19" value="" style="group" vertex="1" connectable="0" parent="1">
          <mxGeometry x="501" y="271" width="206" height="100" as="geometry" />
        </mxCell>
        <mxCell id="JhE3Eh3EsiaqxNz8OIDg-3" value="" style="shape=cube;whiteSpace=wrap;html=1;boundedLbl=1;backgroundOutline=1;darkOpacity=0.05;darkOpacity2=0.1;size=10;" vertex="1" parent="JhE3Eh3EsiaqxNz8OIDg-19">
          <mxGeometry x="6.18" width="175.1" height="100" as="geometry" />
        </mxCell>
        <mxCell id="JhE3Eh3EsiaqxNz8OIDg-17" value="&lt;div&gt;&amp;lt;&amp;lt;execution environment&amp;gt;&amp;gt;&lt;/div&gt;&lt;div&gt;Triage Engine&lt;br&gt;&lt;/div&gt;" style="text;html=1;strokeColor=none;fillColor=none;align=center;verticalAlign=middle;whiteSpace=wrap;rounded=0;" vertex="1" parent="JhE3Eh3EsiaqxNz8OIDg-19">
          <mxGeometry y="12" width="206" height="30" as="geometry" />
        </mxCell>
        <mxCell id="JhE3Eh3EsiaqxNz8OIDg-55" value="&lt;div&gt;&amp;lt;&amp;lt;artifact&amp;gt;&amp;gt;&lt;/div&gt;&lt;div&gt;TriageModel.py&lt;br&gt;&lt;/div&gt;" style="rounded=0;whiteSpace=wrap;html=1;" vertex="1" parent="JhE3Eh3EsiaqxNz8OIDg-19">
          <mxGeometry x="25.230000000000018" y="49" width="148" height="45" as="geometry" />
        </mxCell>
        <mxCell id="JhE3Eh3EsiaqxNz8OIDg-54" value="" style="group" vertex="1" connectable="0" parent="JhE3Eh3EsiaqxNz8OIDg-19">
          <mxGeometry x="14.230000000000018" y="49" width="159" height="45" as="geometry" />
        </mxCell>
        <mxCell id="JhE3Eh3EsiaqxNz8OIDg-56" value="" style="shape=note;whiteSpace=wrap;html=1;backgroundOutline=1;darkOpacity=0.05;size=6;" vertex="1" parent="JhE3Eh3EsiaqxNz8OIDg-54">
          <mxGeometry x="139" y="4" width="14" height="17" as="geometry" />
        </mxCell>
        <mxCell id="JhE3Eh3EsiaqxNz8OIDg-38" value="" style="group" vertex="1" connectable="0" parent="1">
          <mxGeometry x="501" y="381" width="206" height="164" as="geometry" />
        </mxCell>
        <mxCell id="JhE3Eh3EsiaqxNz8OIDg-39" value="" style="shape=cube;whiteSpace=wrap;html=1;boundedLbl=1;backgroundOutline=1;darkOpacity=0.05;darkOpacity2=0.1;size=10;" vertex="1" parent="JhE3Eh3EsiaqxNz8OIDg-38">
          <mxGeometry x="6.18" width="175.1" height="100" as="geometry" />
        </mxCell>
        <mxCell id="JhE3Eh3EsiaqxNz8OIDg-40" value="&lt;div&gt;&amp;lt;&amp;lt;execution environment&amp;gt;&amp;gt;&lt;/div&gt;&lt;div&gt;ER Manager&lt;br&gt;&lt;/div&gt;" style="text;html=1;strokeColor=none;fillColor=none;align=center;verticalAlign=middle;whiteSpace=wrap;rounded=0;" vertex="1" parent="JhE3Eh3EsiaqxNz8OIDg-38">
          <mxGeometry y="12" width="206" height="30" as="geometry" />
        </mxCell>
        <mxCell id="JhE3Eh3EsiaqxNz8OIDg-53" value="" style="group" vertex="1" connectable="0" parent="JhE3Eh3EsiaqxNz8OIDg-38">
          <mxGeometry x="14.230000000000018" y="48" width="159" height="45" as="geometry" />
        </mxCell>
        <mxCell id="JhE3Eh3EsiaqxNz8OIDg-48" value="&lt;div&gt;&amp;lt;&amp;lt;artifact&amp;gt;&amp;gt;&lt;/div&gt;&lt;div&gt;ERManagementModel.py&lt;br&gt;&lt;/div&gt;" style="rounded=0;whiteSpace=wrap;html=1;" vertex="1" parent="JhE3Eh3EsiaqxNz8OIDg-53">
          <mxGeometry x="11" width="148" height="45" as="geometry" />
        </mxCell>
        <mxCell id="JhE3Eh3EsiaqxNz8OIDg-49" value="" style="shape=note;whiteSpace=wrap;html=1;backgroundOutline=1;darkOpacity=0.05;size=6;" vertex="1" parent="JhE3Eh3EsiaqxNz8OIDg-53">
          <mxGeometry x="139" y="4" width="14" height="17" as="geometry" />
        </mxCell>
        <mxCell id="JhE3Eh3EsiaqxNz8OIDg-143" value="" style="group" vertex="1" connectable="0" parent="1">
          <mxGeometry x="182" y="627" width="829" height="247" as="geometry" />
        </mxCell>
        <mxCell id="JhE3Eh3EsiaqxNz8OIDg-5" value="" style="shape=cube;whiteSpace=wrap;html=1;boundedLbl=1;backgroundOutline=1;darkOpacity=0.05;darkOpacity2=0.1;size=10;" vertex="1" parent="JhE3Eh3EsiaqxNz8OIDg-143">
          <mxGeometry width="829" height="247" as="geometry" />
        </mxCell>
        <mxCell id="JhE3Eh3EsiaqxNz8OIDg-12" value="&lt;div&gt;&amp;lt;&amp;lt;device&amp;gt;&amp;gt;&lt;/div&gt;&lt;div&gt;Database Server&lt;/div&gt;" style="text;html=1;strokeColor=none;fillColor=none;align=center;verticalAlign=middle;whiteSpace=wrap;rounded=0;" vertex="1" parent="JhE3Eh3EsiaqxNz8OIDg-143">
          <mxGeometry x="314.5" y="20.994999999999994" width="200" height="46.3125" as="geometry" />
        </mxCell>
        <mxCell id="JhE3Eh3EsiaqxNz8OIDg-142" value="" style="group" vertex="1" connectable="0" parent="JhE3Eh3EsiaqxNz8OIDg-143">
          <mxGeometry x="610" y="79" width="200" height="160.81000000000012" as="geometry" />
        </mxCell>
        <mxCell id="JhE3Eh3EsiaqxNz8OIDg-13" value="" style="shape=cube;whiteSpace=wrap;html=1;boundedLbl=1;backgroundOutline=1;darkOpacity=0.05;darkOpacity2=0.1;size=10;" vertex="1" parent="JhE3Eh3EsiaqxNz8OIDg-142">
          <mxGeometry x="3" width="186" height="160.81" as="geometry" />
        </mxCell>
        <mxCell id="JhE3Eh3EsiaqxNz8OIDg-46" value="&lt;div&gt;&amp;lt;&amp;lt;execution environment&amp;gt;&amp;gt;&lt;/div&gt;&lt;div&gt;HealthWorkers: RDBMS&lt;br&gt;&lt;/div&gt;" style="text;html=1;strokeColor=none;fillColor=none;align=center;verticalAlign=middle;whiteSpace=wrap;rounded=0;" vertex="1" parent="JhE3Eh3EsiaqxNz8OIDg-142">
          <mxGeometry y="12.49499999999989" width="200" height="46.3125" as="geometry" />
        </mxCell>
        <mxCell id="JhE3Eh3EsiaqxNz8OIDg-61" value="" style="group" vertex="1" connectable="0" parent="JhE3Eh3EsiaqxNz8OIDg-142">
          <mxGeometry x="26" y="55.809999999999945" width="148" height="45" as="geometry" />
        </mxCell>
        <mxCell id="JhE3Eh3EsiaqxNz8OIDg-58" value="&lt;div&gt;&amp;lt;&amp;lt;artifact&amp;gt;&amp;gt;&lt;/div&gt;&lt;div&gt;NurseSchema:Schema&lt;br&gt;&lt;/div&gt;" style="rounded=0;whiteSpace=wrap;html=1;" vertex="1" parent="JhE3Eh3EsiaqxNz8OIDg-61">
          <mxGeometry width="148" height="45" as="geometry" />
        </mxCell>
        <mxCell id="JhE3Eh3EsiaqxNz8OIDg-59" value="" style="shape=note;whiteSpace=wrap;html=1;backgroundOutline=1;darkOpacity=0.05;size=6;" vertex="1" parent="JhE3Eh3EsiaqxNz8OIDg-61">
          <mxGeometry x="128" y="4" width="14" height="17" as="geometry" />
        </mxCell>
        <mxCell id="JhE3Eh3EsiaqxNz8OIDg-66" value="" style="group" vertex="1" connectable="0" parent="JhE3Eh3EsiaqxNz8OIDg-142">
          <mxGeometry x="26" y="107.80999999999995" width="148" height="45" as="geometry" />
        </mxCell>
        <mxCell id="JhE3Eh3EsiaqxNz8OIDg-69" value="" style="group;movable=1;resizable=1;rotatable=1;deletable=1;editable=1;locked=0;connectable=1;" vertex="1" connectable="0" parent="JhE3Eh3EsiaqxNz8OIDg-66">
          <mxGeometry width="148" height="45" as="geometry" />
        </mxCell>
        <mxCell id="JhE3Eh3EsiaqxNz8OIDg-67" value="&lt;div&gt;&amp;lt;&amp;lt;artifact&amp;gt;&amp;gt;&lt;/div&gt;&lt;div&gt;ClinicSchema:Schema&lt;br&gt;&lt;/div&gt;" style="rounded=0;whiteSpace=wrap;html=1;" vertex="1" parent="JhE3Eh3EsiaqxNz8OIDg-69">
          <mxGeometry width="148" height="45" as="geometry" />
        </mxCell>
        <mxCell id="JhE3Eh3EsiaqxNz8OIDg-68" value="" style="shape=note;whiteSpace=wrap;html=1;backgroundOutline=1;darkOpacity=0.05;size=6;" vertex="1" parent="JhE3Eh3EsiaqxNz8OIDg-69">
          <mxGeometry x="128" y="4" width="14" height="17" as="geometry" />
        </mxCell>
        <mxCell id="JhE3Eh3EsiaqxNz8OIDg-130" value="" style="group" vertex="1" connectable="0" parent="JhE3Eh3EsiaqxNz8OIDg-142">
          <mxGeometry x="-200" width="203" height="160.81000000000012" as="geometry" />
        </mxCell>
        <mxCell id="JhE3Eh3EsiaqxNz8OIDg-131" value="" style="shape=cube;whiteSpace=wrap;html=1;boundedLbl=1;backgroundOutline=1;darkOpacity=0.05;darkOpacity2=0.1;size=10;" vertex="1" parent="JhE3Eh3EsiaqxNz8OIDg-130">
          <mxGeometry x="1" width="186" height="160.81" as="geometry" />
        </mxCell>
        <mxCell id="JhE3Eh3EsiaqxNz8OIDg-132" value="&lt;div&gt;&amp;lt;&amp;lt;execution environment&amp;gt;&amp;gt;&lt;/div&gt;&lt;div&gt;ER: RDBMS&lt;br&gt;&lt;/div&gt;" style="text;html=1;strokeColor=none;fillColor=none;align=center;verticalAlign=middle;whiteSpace=wrap;rounded=0;" vertex="1" parent="JhE3Eh3EsiaqxNz8OIDg-130">
          <mxGeometry x="3" y="13.80499999999995" width="200" height="46.3125" as="geometry" />
        </mxCell>
        <mxCell id="JhE3Eh3EsiaqxNz8OIDg-133" value="" style="group" vertex="1" connectable="0" parent="JhE3Eh3EsiaqxNz8OIDg-130">
          <mxGeometry x="24" y="55.809999999999945" width="148" height="46" as="geometry" />
        </mxCell>
        <mxCell id="JhE3Eh3EsiaqxNz8OIDg-134" value="&lt;div&gt;&amp;lt;&amp;lt;artifact&amp;gt;&amp;gt;&lt;/div&gt;&lt;div&gt;ERBookingSchema&lt;/div&gt;&lt;div&gt;:Schema&lt;br&gt;&lt;/div&gt;" style="rounded=0;whiteSpace=wrap;html=1;" vertex="1" parent="JhE3Eh3EsiaqxNz8OIDg-133">
          <mxGeometry width="148" height="46" as="geometry" />
        </mxCell>
        <mxCell id="JhE3Eh3EsiaqxNz8OIDg-135" value="" style="shape=note;whiteSpace=wrap;html=1;backgroundOutline=1;darkOpacity=0.05;size=6;" vertex="1" parent="JhE3Eh3EsiaqxNz8OIDg-133">
          <mxGeometry x="128" y="4" width="14" height="17" as="geometry" />
        </mxCell>
        <mxCell id="JhE3Eh3EsiaqxNz8OIDg-136" value="" style="group" vertex="1" connectable="0" parent="JhE3Eh3EsiaqxNz8OIDg-130">
          <mxGeometry x="24" y="107.80999999999995" width="148" height="45" as="geometry" />
        </mxCell>
        <mxCell id="JhE3Eh3EsiaqxNz8OIDg-137" value="" style="group;movable=1;resizable=1;rotatable=1;deletable=1;editable=1;locked=0;connectable=1;" vertex="1" connectable="0" parent="JhE3Eh3EsiaqxNz8OIDg-136">
          <mxGeometry width="148" height="45" as="geometry" />
        </mxCell>
        <mxCell id="JhE3Eh3EsiaqxNz8OIDg-138" value="&lt;div&gt;&amp;lt;&amp;lt;artifact&amp;gt;&amp;gt;&lt;/div&gt;&lt;div&gt;ERSchema:Schema&lt;br&gt;&lt;/div&gt;" style="rounded=0;whiteSpace=wrap;html=1;" vertex="1" parent="JhE3Eh3EsiaqxNz8OIDg-137">
          <mxGeometry width="148" height="45" as="geometry" />
        </mxCell>
        <mxCell id="JhE3Eh3EsiaqxNz8OIDg-139" value="" style="shape=note;whiteSpace=wrap;html=1;backgroundOutline=1;darkOpacity=0.05;size=6;" vertex="1" parent="JhE3Eh3EsiaqxNz8OIDg-137">
          <mxGeometry x="128" y="4" width="14" height="17" as="geometry" />
        </mxCell>
        <mxCell id="JhE3Eh3EsiaqxNz8OIDg-92" value="" style="group" vertex="1" connectable="0" parent="JhE3Eh3EsiaqxNz8OIDg-130">
          <mxGeometry x="-203" y="5.684341886080802e-14" width="203" height="160.81000000000006" as="geometry" />
        </mxCell>
        <mxCell id="JhE3Eh3EsiaqxNz8OIDg-93" value="" style="shape=cube;whiteSpace=wrap;html=1;boundedLbl=1;backgroundOutline=1;darkOpacity=0.05;darkOpacity2=0.1;size=10;" vertex="1" parent="JhE3Eh3EsiaqxNz8OIDg-92">
          <mxGeometry x="5" width="186" height="160.81" as="geometry" />
        </mxCell>
        <mxCell id="JhE3Eh3EsiaqxNz8OIDg-94" value="&lt;div&gt;&amp;lt;&amp;lt;execution environment&amp;gt;&amp;gt;&lt;/div&gt;&lt;div&gt;Medicine: RDBMS&lt;br&gt;&lt;/div&gt;" style="text;html=1;strokeColor=none;fillColor=none;align=center;verticalAlign=middle;whiteSpace=wrap;rounded=0;" vertex="1" parent="JhE3Eh3EsiaqxNz8OIDg-92">
          <mxGeometry x="5" y="13.80499999999995" width="200" height="46.3125" as="geometry" />
        </mxCell>
        <mxCell id="JhE3Eh3EsiaqxNz8OIDg-95" value="" style="group" vertex="1" connectable="0" parent="JhE3Eh3EsiaqxNz8OIDg-92">
          <mxGeometry x="28" y="55.809999999999945" width="148" height="45" as="geometry" />
        </mxCell>
        <mxCell id="JhE3Eh3EsiaqxNz8OIDg-96" value="&lt;div&gt;&amp;lt;&amp;lt;artifact&amp;gt;&amp;gt;&lt;/div&gt;&lt;div&gt;MedicineSchema:Schema&lt;br&gt;&lt;/div&gt;" style="rounded=0;whiteSpace=wrap;html=1;" vertex="1" parent="JhE3Eh3EsiaqxNz8OIDg-95">
          <mxGeometry width="148" height="45" as="geometry" />
        </mxCell>
        <mxCell id="JhE3Eh3EsiaqxNz8OIDg-97" value="" style="shape=note;whiteSpace=wrap;html=1;backgroundOutline=1;darkOpacity=0.05;size=6;" vertex="1" parent="JhE3Eh3EsiaqxNz8OIDg-95">
          <mxGeometry x="128" y="4" width="14" height="17" as="geometry" />
        </mxCell>
        <mxCell id="JhE3Eh3EsiaqxNz8OIDg-98" value="" style="group" vertex="1" connectable="0" parent="JhE3Eh3EsiaqxNz8OIDg-92">
          <mxGeometry x="28" y="107.80999999999995" width="148" height="45" as="geometry" />
        </mxCell>
        <mxCell id="JhE3Eh3EsiaqxNz8OIDg-99" value="" style="group;movable=1;resizable=1;rotatable=1;deletable=1;editable=1;locked=0;connectable=1;" vertex="1" connectable="0" parent="JhE3Eh3EsiaqxNz8OIDg-98">
          <mxGeometry width="148" height="45" as="geometry" />
        </mxCell>
        <mxCell id="JhE3Eh3EsiaqxNz8OIDg-100" value="&lt;div&gt;&amp;lt;&amp;lt;artifact&amp;gt;&amp;gt;&lt;/div&gt;&lt;div&gt;PharmacySchema:Schema&lt;br&gt;&lt;/div&gt;" style="rounded=0;whiteSpace=wrap;html=1;" vertex="1" parent="JhE3Eh3EsiaqxNz8OIDg-99">
          <mxGeometry width="148" height="45" as="geometry" />
        </mxCell>
        <mxCell id="JhE3Eh3EsiaqxNz8OIDg-101" value="" style="shape=note;whiteSpace=wrap;html=1;backgroundOutline=1;darkOpacity=0.05;size=6;" vertex="1" parent="JhE3Eh3EsiaqxNz8OIDg-99">
          <mxGeometry x="128" y="4" width="14" height="17" as="geometry" />
        </mxCell>
        <mxCell id="JhE3Eh3EsiaqxNz8OIDg-112" value="" style="group" vertex="1" connectable="0" parent="JhE3Eh3EsiaqxNz8OIDg-92">
          <mxGeometry x="-192" y="-2.090000000000032" width="203" height="160.81000000000006" as="geometry" />
        </mxCell>
        <mxCell id="JhE3Eh3EsiaqxNz8OIDg-113" value="" style="shape=cube;whiteSpace=wrap;html=1;boundedLbl=1;backgroundOutline=1;darkOpacity=0.05;darkOpacity2=0.1;size=10;" vertex="1" parent="JhE3Eh3EsiaqxNz8OIDg-112">
          <mxGeometry width="186" height="127" as="geometry" />
        </mxCell>
        <mxCell id="JhE3Eh3EsiaqxNz8OIDg-114" value="&lt;div&gt;&amp;lt;&amp;lt;execution environment&amp;gt;&amp;gt;&lt;/div&gt;&lt;div&gt;Triage: RDBMS&lt;br&gt;&lt;/div&gt;" style="text;html=1;strokeColor=none;fillColor=none;align=center;verticalAlign=middle;whiteSpace=wrap;rounded=0;" vertex="1" parent="JhE3Eh3EsiaqxNz8OIDg-112">
          <mxGeometry x="3" y="13.80499999999995" width="200" height="46.3125" as="geometry" />
        </mxCell>
        <mxCell id="JhE3Eh3EsiaqxNz8OIDg-115" value="" style="group" vertex="1" connectable="0" parent="JhE3Eh3EsiaqxNz8OIDg-112">
          <mxGeometry x="23" y="55.81" width="148" height="62" as="geometry" />
        </mxCell>
        <mxCell id="JhE3Eh3EsiaqxNz8OIDg-116" value="&lt;div&gt;&amp;lt;&amp;lt;artifact&amp;gt;&amp;gt;&lt;/div&gt;&lt;div&gt;TriageResultSchema&lt;/div&gt;&lt;div&gt;:Schema&lt;br&gt;&lt;/div&gt;" style="rounded=0;whiteSpace=wrap;html=1;" vertex="1" parent="JhE3Eh3EsiaqxNz8OIDg-115">
          <mxGeometry width="148" height="62" as="geometry" />
        </mxCell>
        <mxCell id="JhE3Eh3EsiaqxNz8OIDg-117" value="" style="shape=note;whiteSpace=wrap;html=1;backgroundOutline=1;darkOpacity=0.05;size=6;" vertex="1" parent="JhE3Eh3EsiaqxNz8OIDg-115">
          <mxGeometry x="128" y="4.372444444444445" width="14" height="18.58288888888889" as="geometry" />
        </mxCell>
        <mxCell id="JhE3Eh3EsiaqxNz8OIDg-118" value="" style="group" vertex="1" connectable="0" parent="JhE3Eh3EsiaqxNz8OIDg-112">
          <mxGeometry x="23" y="107.80999999999995" width="148" height="45" as="geometry" />
        </mxCell>
      </root>
    </mxGraphModel>
  </diagram>
</mxfile>
